<?xml version="1.0" encoding="UTF-8"?>
<svg width="24" height="24" viewBox="0 0 24 24" fill="none" xmlns="http://www.w3.org/2000/svg">
  <path d="M15 2H9C7.34 2 6 3.34 6 5C6 6.66 7.34 8 9 8H15C16.66 8 18 6.66 18 5C18 3.34 16.66 2 15 2Z" fill="#F24E1E"/>
  <path d="M15 8H9C7.34 8 6 9.34 6 11C6 12.66 7.34 14 9 14H15C16.66 14 18 12.66 18 11C18 9.34 16.66 8 15 8Z" fill="#A259FF"/>
  <path d="M15 14H9C7.34 14 6 15.34 6 17C6 18.66 7.34 20 9 20C10.66 20 12 18.66 12 17V14H15C16.66 14 18 15.34 18 17C18 18.66 16.66 20 15 20C13.34 20 12 18.66 12 17" fill="#0ACF83"/>
</svg>


