<?xml version="1.0" encoding="UTF-8"?>
<svg width="24" height="24" viewBox="0 0 24 24" fill="none" xmlns="http://www.w3.org/2000/svg">
  <path d="M19 3H5C3.895 3 3 3.895 3 5V19C3 20.105 3.895 21 5 21H19C20.105 21 21 20.105 21 19V5C21 3.895 20.105 3 19 3ZM9 17H6.477V9H9V17ZM7.694 7.717C6.923 7.717 6.408 7.203 6.408 6.517C6.408 5.831 6.922 5.317 7.779 5.317C8.55 5.317 9.065 5.831 9.065 6.517C9.065 7.203 8.551 7.717 7.694 7.717ZM18 17H15.558V12.577C15.558 11.432 14.767 11.077 14.362 11.077C13.957 11.077 13.014 11.315 13.014 12.577C13.014 12.815 13.014 17 13.014 17H10.477V9H13.014V10.017C13.419 9.305 14.249 9 15.478 9C16.707 9 18 9.871 18 12.577V17Z" fill="currentColor"/>
</svg>


