<?xml version="1.0" encoding="UTF-8"?>
<svg width="24" height="24" viewBox="0 0 24 24" fill="none" xmlns="http://www.w3.org/2000/svg">
  <path d="M19.75 2H4.25C3.01 2 2 3.01 2 4.25V19.75C2 20.99 3.01 22 4.25 22H19.75C20.99 22 22 20.99 22 19.75V4.25C22 3.01 20.99 2 19.75 2Z" fill="#FF26BE"/>
  <path d="M10.5 8.5L14 16H12.5L11.5 13.75H8.5L7.5 16H6L9.5 8.5H10.5ZM11 12.5L10 10L9 12.5H11ZM14.5 8.5H16V13.75C16 14.25 16.25 14.5 16.75 14.5C17 14.5 17.25 14.4375 17.5 14.3125L17.75 15.5C17.25 15.8125 16.75 16 16 16C15 16 14.5 15.375 14.5 14.25V8.5Z" fill="white"/>
</svg>


