<?xml version="1.0" encoding="UTF-8"?>
<svg width="256px" height="256px" viewBox="0 0 256 256" version="1.1" xmlns="http://www.w3.org/2000/svg">
    <g fill="currentColor">
        <path d="M128,0 C57.3,0 0,57.3 0,128 C0,198.7 57.3,256 128,256 C198.7,256 256,198.7 256,128 C256,57.3 198.7,0 128,0 Z M128,248 C61.9,248 8,194.1 8,128 C8,61.9 61.9,8 128,8 C194.1,8 248,61.9 248,128 C248,194.1 194.1,248 128,248 Z"/>
        <path d="M128,32 C76.2,32 34,74.2 34,126 C34,177.8 76.2,220 128,220 C179.8,220 222,177.8 222,126 C222,74.2 179.8,32 128,32 Z M128,212 C80.6,212 42,173.4 42,126 C42,78.6 80.6,40 128,40 C175.4,40 214,78.6 214,126 C214,173.4 175.4,212 128,212 Z"/>
        <circle cx="128" cy="126" r="64"/>
    </g>
</svg>


